# xmcd CD database file
#
# Track frame offsets:
#	150
#	20166
#	37905
#	61392
#	80553
#	96229
#	112574
#	128174
#	145040
#	161055
#	182459
#	202645
#	221625
#	242555
#	261811
#
# Disc length: 3825 seconds
#
# Revision: 3
# Processed by: cddbd v1.5.2PL0 Copyright (c) Steve Scherf et al.
# Submitted via: CDex 1.51
#
DISCID=c10eef0f
DTITLE=Tim McGraw - Two Lanes Of Freedom (Accelerated Deluxe)
DYEAR=2013
DGENRE=Country
TTITLE0=Two Lanes Of Freedom
TTITLE1=One Of Those Nights
TTITLE2=Friend Of A Friend
TTITLE3=Southern Girl
TTITLE4=Truck Yeah
TTITLE5=Nashville Without You
TTITLE6=Book Of John
TTITLE7=Annie I Owe You A Dance
TTITLE8=Mexicoma
TTITLE9=Number 37405
TTITLE10=It's Your World
TTITLE11=Tinted Windows
TTITLE12=Highway Don't Care
TTITLE13=Truck Yeah (Live)
TTITLE14=Let Me Love It Out Of You
EXTD=YEAR: 2013
EXTT0=
EXTT1=
EXTT2=
EXTT3=
EXTT4=
EXTT5=
EXTT6=
EXTT7=
EXTT8=
EXTT9=
EXTT10=
EXTT11=
EXTT12=
EXTT13=
EXTT14=
PLAYORDER=
